<?xml version="1.0" encoding="UTF-8" standalone="no"?>
<!-- Created with Inkscape (http://www.inkscape.org/) -->

<svg
   xmlns:dc="http://purl.org/dc/elements/1.1/"
   xmlns:cc="http://creativecommons.org/ns#"
   xmlns:rdf="http://www.w3.org/1999/02/22-rdf-syntax-ns#"
   xmlns:svg="http://www.w3.org/2000/svg"
   xmlns="http://www.w3.org/2000/svg"
   xmlns:sodipodi="http://sodipodi.sourceforge.net/DTD/sodipodi-0.dtd"
   xmlns:inkscape="http://www.inkscape.org/namespaces/inkscape"
   width="72.854767mm"
   height="72.727783mm"
   viewBox="0 0 72.854767 72.727783"
   version="1.1"
   id="svg8"
   inkscape:version="0.92.3 (2405546, 2018-03-11)"
   sodipodi:docname="User-b.svg">
  <defs
     id="defs2" />
  <sodipodi:namedview
     id="base"
     pagecolor="#ffffff"
     bordercolor="#666666"
     borderopacity="1.0"
     inkscape:pageopacity="0.0"
     inkscape:pageshadow="2"
     inkscape:zoom="0.7546875"
     inkscape:cx="171.83301"
     inkscape:cy="68.139125"
     inkscape:document-units="mm"
     inkscape:current-layer="layer1"
     showgrid="false"
     fit-margin-top="0"
     fit-margin-left="0"
     fit-margin-right="0"
     fit-margin-bottom="0"
     inkscape:window-width="1299"
     inkscape:window-height="713"
     inkscape:window-x="67"
     inkscape:window-y="27"
     inkscape:window-maximized="1" />
  <metadata
     id="metadata5">
    <rdf:RDF>
      <cc:Work
         rdf:about="">
        <dc:format>image/svg+xml</dc:format>
        <dc:type
           rdf:resource="http://purl.org/dc/dcmitype/StillImage" />
        <dc:title></dc:title>
      </cc:Work>
    </rdf:RDF>
  </metadata>
  <g
     inkscape:label="Capa 1"
     inkscape:groupmode="layer"
     id="layer1"
     transform="translate(-60.369183,-94.134025)">
    <path
       style="opacity:1;fill:#ffffff;fill-opacity:1;fill-rule:nonzero;stroke:#ffffff;stroke-width:0.13250518;stroke-linecap:butt;stroke-linejoin:round;stroke-miterlimit:4;stroke-dasharray:none;stroke-opacity:1"
       d="m 90.672273,166.29622 c -11.960905,-2.6179 -20.791061,-9.18538 -26.303213,-19.56318 -0.603319,-1.13587 -1.096941,-2.21637 -1.096941,-2.40112 0,-0.18474 -0.216702,-0.83303 -0.48156,-1.44064 -1.097354,-2.51744 -2.337554,-9.09967 -2.354982,-12.49881 -0.01553,-3.03019 1.254371,-9.39864 2.631977,-13.19911 1.286634,-3.5495 4.202419,-8.01844 7.365476,-11.28884 2.597425,-2.68558 6.490819,-6.013077 7.035696,-6.013077 0.124521,0 0.885884,-0.44152 1.691916,-0.98116 1.288124,-0.8624 2.515383,-1.44225 5.383802,-2.54374 1.484326,-0.56999 6.73332,-1.70686 9.452806,-2.04736 3.743751,-0.46876 11.11849,0.51591 14.42479,1.92597 0.63322,0.27006 1.31649,0.49101 1.5184,0.49101 0.44705,0 5.32342,2.42368 5.56908,2.76797 0.0964,0.13513 0.9474,0.691927 1.8911,1.237337 0.94368,0.54541 3.0171,2.27324 4.60759,3.83962 4.29436,4.22926 7.01821,8.47924 8.90314,13.89144 0.43651,1.25334 0.92103,2.59434 1.07673,2.97998 0.4362,1.08045 1.16563,6.76534 1.16958,9.11526 0.007,3.96779 -1.08451,9.43523 -2.58886,12.9717 -1.62433,3.81851 -2.69116,5.81614 -4.04725,7.57849 -0.8504,1.10516 -1.54619,2.09206 -1.54619,2.19312 0,0.32193 -6.05072,6.18008 -6.38324,6.18008 -0.17546,0 -0.90138,0.45826 -1.61316,1.01835 -2.84741,2.24061 -8.74197,4.64191 -14.26796,5.81242 -3.022505,0.64022 -9.055002,0.62734 -12.038727,-0.0257 z m 30.814037,-13.02797 c 2.06592,-2.23543 4.17739,-5.36796 5.56111,-8.25037 1.32999,-2.77046 1.89977,-4.4238 2.86547,-8.31485 0.1675,-0.67488 0.30635,-3.59351 0.30855,-6.48585 0.004,-4.45503 -0.12225,-5.71427 -0.82202,-8.23879 -2.15116,-7.76047 -7.0409,-14.87075 -13.01343,-18.92309 -0.96411,-0.65415 -1.83182,-1.29493 -1.92823,-1.42397 -0.35353,-0.47316 -5.5176,-2.738997 -8.41408,-3.691847 -2.8042,-0.92249 -3.35223,-0.98143 -9.290541,-0.99921 -6.214356,-0.0186 -6.363398,-0.001 -9.776629,1.12954 -4.065222,1.34694 -7.239733,2.854177 -9.046842,4.295387 -0.71178,0.56766 -1.46611,1.0321 -1.676289,1.0321 -0.210183,0 -0.472959,0.23665 -0.583949,0.52588 -0.110987,0.28924 -0.382124,0.54289 -0.602522,0.56366 -0.519002,0.0489 -6.185403,6.28501 -6.185403,6.80726 0,0.11741 -0.37633,0.71569 -0.83629,1.32949 -2.752873,3.67367 -5.122111,11.85988 -5.123203,17.70173 -5.29e-4,2.52993 0.537355,7.10922 0.954929,8.13064 0.118242,0.28924 0.406804,1.15694 0.641244,1.92823 0.568925,1.87171 1.668729,4.68734 2.285722,5.85173 0.760688,1.43557 3.172592,4.90733 4.09394,5.89292 l 0.819335,0.87647 2.526435,-2.6294 c 2.329752,-2.4247 6.525411,-6.31056 6.813666,-6.31056 0.161121,0 2.321814,-1.51558 2.548859,-1.78785 0.433641,-0.52002 5.83053,-3.47095 6.347946,-3.47095 0.317863,0 0.751298,-0.20889 0.963192,-0.46421 0.298617,-0.35981 0.04669,-0.70286 -1.120209,-1.52536 -3.0632,-2.15914 -5.516544,-7.34457 -5.477441,-11.57722 0.05003,-5.41539 3.031916,-10.51441 7.522506,-12.86346 1.450425,-0.75872 2.21764,-0.9155 4.479978,-0.9155 2.32832,0 3.024865,0.15105 4.735706,1.02701 1.10323,0.56486 2.42882,1.42883 2.94574,1.91993 2.65541,2.52276 4.49423,6.96184 4.49423,10.84948 0,4.03524 -2.32414,9.18962 -5.09748,11.30494 -0.66719,0.5089 -1.21308,1.1051 -1.21308,1.32489 0,0.21979 0.98603,0.84806 2.19117,1.39616 4.62663,2.10418 11.53824,8.4916 15.14526,13.99662 0.77291,1.1796 0.86228,1.17908 1.96265,-0.0116 z"
       id="path828"
       inkscape:connector-curvature="0" />
  </g>
</svg>
