<?xml version="1.0" encoding="UTF-8" standalone="no"?>
<!-- Created with Inkscape (http://www.inkscape.org/) -->

<svg
   xmlns:dc="http://purl.org/dc/elements/1.1/"
   xmlns:cc="http://creativecommons.org/ns#"
   xmlns:rdf="http://www.w3.org/1999/02/22-rdf-syntax-ns#"
   xmlns:svg="http://www.w3.org/2000/svg"
   xmlns="http://www.w3.org/2000/svg"
   xmlns:sodipodi="http://sodipodi.sourceforge.net/DTD/sodipodi-0.dtd"
   xmlns:inkscape="http://www.inkscape.org/namespaces/inkscape"
   width="94.765602mm"
   height="94.847816mm"
   viewBox="0 0 94.765602 94.847816"
   version="1.1"
   id="svg8"
   inkscape:version="0.92.3 (2405546, 2018-03-11)"
   sodipodi:docname="User2-b.svg">
  <defs
     id="defs2" />
  <sodipodi:namedview
     id="base"
     pagecolor="#ffffff"
     bordercolor="#666666"
     borderopacity="1.0"
     inkscape:pageopacity="0.0"
     inkscape:pageshadow="2"
     inkscape:zoom="0.7546875"
     inkscape:cx="253.36195"
     inkscape:cy="237.63188"
     inkscape:document-units="mm"
     inkscape:current-layer="layer1"
     showgrid="false"
     fit-margin-top="0"
     fit-margin-left="0"
     fit-margin-right="0"
     fit-margin-bottom="0"
     inkscape:window-width="1299"
     inkscape:window-height="713"
     inkscape:window-x="67"
     inkscape:window-y="27"
     inkscape:window-maximized="1" />
  <metadata
     id="metadata5">
    <rdf:RDF>
      <cc:Work
         rdf:about="">
        <dc:format>image/svg+xml</dc:format>
        <dc:type
           rdf:resource="http://purl.org/dc/dcmitype/StillImage" />
        <dc:title></dc:title>
      </cc:Work>
    </rdf:RDF>
  </metadata>
  <g
     inkscape:label="Capa 1"
     inkscape:groupmode="layer"
     id="layer1"
     transform="translate(-38.797985,-129.94161)">
    <path
       style="opacity:1;fill:#ffffff;fill-opacity:1;fill-rule:nonzero;stroke:#ffffff;stroke-width:0.13250518;stroke-linecap:butt;stroke-linejoin:round;stroke-miterlimit:4;stroke-dasharray:none;stroke-opacity:1"
       d="m 75.542644,223.99333 c -10.381034,-2.90295 -15.671639,-5.88249 -22.652845,-12.75752 -8.573185,-8.44279 -13.446191,-18.93844 -13.93249,-30.00827 -0.318749,-7.25587 0.181004,-12.81727 1.512197,-16.82816 2.991231,-9.01259 6.30986,-14.67516 11.932883,-20.36107 3.985019,-4.02959 7.43214,-6.52992 12.272076,-8.90142 1.44617,-0.7086 2.89501,-1.42971 3.219643,-1.60247 0.663025,-0.35284 3.943159,-1.46931 6.070901,-2.06637 7.093925,-1.99061 18.000305,-1.93861 25.242235,0.12035 4.638056,1.31865 11.850406,4.80445 14.724636,7.11656 0.19282,0.15512 1.37605,1.09146 2.6294,2.08077 6.61643,5.22256 12.44065,13.88754 15.12768,22.50618 0.40031,1.28399 0.97171,3.1211 1.26979,4.08247 0.42304,1.36444 0.5412,3.51814 0.53854,9.81642 -0.003,7.61534 -0.0552,8.25914 -0.92625,11.46319 -1.72328,6.33899 -3.89199,11.08675 -7.45575,16.3221 -2.28247,3.35308 -8.90116,9.81885 -12.25065,11.96762 -1.53407,0.98414 -2.94698,1.90986 -3.1398,2.05718 -0.68776,0.52543 -5.07715,2.54411 -5.53189,2.54411 -0.25473,0 -0.61302,0.1352 -0.7962,0.30046 -0.30836,0.27818 -2.28255,0.90893 -7.200306,2.30048 -2.98188,0.84376 -17.47365,0.73668 -20.6538,-0.15261 z M 52.06119,197.91618 c 0.872014,-0.84782 2.213009,-1.88397 2.979986,-2.30256 0.766977,-0.4186 1.867795,-1.0555 2.446264,-1.41534 1.0273,-0.63904 3.148033,-1.68798 5.258797,-2.60105 4.283853,-1.8531 5.795015,-2.4592 7.494736,-3.006 1.504648,-0.48405 1.550749,-0.47515 2.349642,0.45362 0.448186,0.52104 0.967066,0.94735 1.153068,0.94735 0.186005,0 0.390776,0.12751 0.455051,0.28335 0.200076,0.48512 3.18862,2.3848 5.01182,3.18579 3.93654,1.72944 10.29564,1.74099 14.06127,0.0256 2.06096,-0.93888 4.90797,-2.77923 6.4368,-4.16086 1.330136,-1.20206 1.399396,-1.22295 2.549756,-0.7689 0.44292,0.17483 1.67302,0.65657 2.73354,1.07055 1.06052,0.41397 2.32264,0.92411 2.80469,1.13363 0.48206,0.20953 1.34976,0.58569 1.92823,0.83593 2.59553,1.12276 6.22083,2.95223 6.48585,3.27301 0.0964,0.1167 0.78424,0.52619 1.52849,0.90999 0.74427,0.3838 1.43164,0.89502 1.52751,1.13605 0.0959,0.24103 0.32537,0.43824 0.51001,0.43824 0.18464,0 0.73396,0.47329 1.22071,1.05175 0.48675,0.57847 1.03202,1.05176 1.21171,1.05176 0.17969,0 0.9642,-1.30155 1.74336,-2.89234 3.98828,-8.14281 5.25744,-16.24629 4.01108,-25.61047 -1.12613,-8.46084 -5.29723,-16.58669 -11.92068,-23.22304 -3.61823,-3.62527 -7.21398,-6.24078 -11.3252,-8.2378 -6.253416,-3.03759 -9.517086,-3.80297 -17.391896,-4.07865 -7.08302,-0.24796 -9.45896,0.15089 -16.866641,2.83142 -9.018381,3.26338 -19.087333,12.97313 -22.757,21.94517 -0.354902,0.8677 -0.844138,2.05093 -1.087194,2.6294 -1.447912,3.446 -2.327701,8.08704 -2.52548,13.32229 -0.260755,6.90237 1.166797,13.41716 4.474893,20.42167 0.751297,1.59079 1.488699,2.89226 1.63867,2.89215 0.149971,-1.1e-4 0.986142,-0.69386 1.858158,-1.54167 z"
       id="path23"
       inkscape:connector-curvature="0" />
    <path
       style="opacity:1;fill:#ffffff;fill-opacity:1;fill-rule:nonzero;stroke:#ffffff;stroke-width:0.13250518;stroke-linecap:butt;stroke-linejoin:round;stroke-miterlimit:4;stroke-dasharray:none;stroke-opacity:1"
       d="m 82.904964,189.67774 c -5.20887,-1.69469 -9.705278,-6.0389 -12.374921,-11.95607 -1.723303,-3.81963 -1.930474,-4.47051 -2.550456,-8.01276 -0.600223,-3.42937 -0.601173,-3.74026 -0.02069,-6.76843 1.402453,-7.31596 5.750984,-12.75206 12.159827,-15.20102 2.23371,-0.85355 2.76117,-0.91759 6.55186,-0.79546 4.8807,0.15724 6.89101,0.81249 10.29632,3.35604 3.230786,2.41319 4.815016,4.61997 6.975806,9.71701 0.16349,0.38564 0.45746,1.87153 0.65329,3.30197 0.63763,4.65771 -0.37985,10.09806 -2.7729,14.8265 -3.193756,6.31054 -7.239686,10.04481 -12.611536,11.64008 -2.37725,0.70597 -3.88441,0.68019 -6.30661,-0.10786 z"
       id="path25"
       inkscape:connector-curvature="0" />
  </g>
</svg>
